<?xml version="1.0" standalone="no"?>
<!DOCTYPE svg PUBLIC "-//W3C//DTD SVG 20010904//EN"
 "http://www.w3.org/TR/2001/REC-SVG-20010904/DTD/svg10.dtd">
<svg version="1.0" xmlns="http://www.w3.org/2000/svg"
 width="790.000000pt" height="270.000000pt" viewBox="0 0 790.000000 270.000000"
 preserveAspectRatio="xMidYMid meet">

<g transform="translate(0.000000,270.000000) scale(0.100000,-0.100000)"
fill="#000000" stroke="none">
<path d="M0 1350 l0 -1350 3950 0 3950 0 0 1350 0 1350 -3950 0 -3950 0 0
-1350z m920 919 c36 -5 69 -14 73 -18 4 -4 -34 -11 -85 -14 -154 -10 -291 -58
-388 -135 -74 -60 -108 -102 -153 -191 -40 -81 -42 -89 -45 -191 -7 -178 48
-342 163 -488 117 -150 270 -231 460 -245 l40 -3 -30 -14 c-19 -9 -66 -14
-130 -14 -88 0 -109 3 -170 28 -250 103 -475 374 -529 638 -19 90 -20 135 -6
209 55 294 428 499 800 438z m162 -229 c125 -47 220 -174 234 -313 4 -37 4
-67 1 -67 -4 0 -25 19 -46 43 -112 121 -281 141 -419 50 -99 -66 -162 -202
-148 -323 14 -123 102 -238 212 -280 60 -22 164 -27 210 -10 38 15 40 7 8 -34
-52 -65 -147 -82 -269 -51 -134 35 -270 158 -348 314 -81 161 -96 305 -47 436
44 114 177 217 324 251 85 19 215 12 288 -16z m115 -366 c63 -30 113 -84 113
-123 0 -46 -45 -211 -77 -282 -29 -63 -32 -66 -79 -79 -152 -43 -302 31 -347
171 -39 120 -3 227 101 297 83 56 191 62 289 16z m2353 -294 l0 -290 24 0 c18
0 51 31 137 129 l114 130 98 0 c53 1 97 -2 97 -5 0 -4 -61 -73 -136 -155
l-136 -149 151 -211 c83 -116 151 -215 151 -220 0 -6 -41 -9 -97 -7 l-97 3
-56 75 c-31 41 -89 119 -129 173 -58 79 -76 98 -94 95 -21 -3 -22 -7 -27 -173
l-5 -170 -87 -3 -88 -3 0 493 0 494 83 41 c45 23 85 42 90 42 4 1 7 -129 7
-289z m2920 -157 c0 -435 0 -437 22 -460 17 -18 32 -23 70 -23 l48 0 0 -64 c0
-36 -4 -67 -9 -70 -5 -4 -30 -9 -54 -12 -107 -15 -201 27 -240 106 -22 44 -22
51 -22 465 l0 420 85 41 c47 23 88 40 93 37 4 -2 7 -200 7 -440z m410 3 c0
-423 0 -434 21 -460 17 -22 28 -26 70 -26 l49 0 0 -65 c0 -62 -1 -66 -27 -76
-16 -6 -58 -9 -95 -6 -90 6 -147 39 -179 104 l-24 48 0 420 0 420 85 41 c47
23 88 40 93 37 4 -2 7 -199 7 -437z m-4950 274 c0 -88 1 -160 3 -160 1 0 27 7
57 15 70 19 203 19 264 1 144 -43 206 -159 206 -381 0 -229 -59 -330 -217
-372 -112 -30 -448 -12 -487 27 -6 6 -9 184 -8 482 l2 473 77 37 c43 20 84 37
91 37 9 1 12 -37 12 -159z m4120 145 c38 -20 55 -70 40 -124 -14 -52 -45 -73
-107 -73 -65 0 -93 32 -93 103 0 42 5 55 29 80 34 33 83 39 131 14z m-488
-217 l3 -73 108 -3 108 -3 -3 -77 -3 -77 -107 -3 -108 -3 0 -182 c0 -163 2
-185 20 -214 27 -44 54 -56 117 -51 l54 5 -3 -71 -3 -71 -62 -9 c-141 -20
-234 18 -281 114 l-27 55 -3 327 -4 328 83 40 c46 22 89 40 96 40 8 0 13 -22
15 -72z m-2477 -93 c72 -37 111 -93 125 -180 12 -73 13 -495 1 -513 -4 -7 -52
-22 -107 -33 -79 -16 -128 -20 -239 -17 -130 3 -144 5 -198 31 -44 22 -63 39
-85 75 -24 42 -27 57 -27 132 1 96 13 129 69 178 54 47 102 57 264 56 l142 -1
0 44 c0 54 -28 86 -91 103 -57 16 -209 7 -272 -15 -26 -10 -50 -16 -51 -14 -2
2 -7 34 -10 70 l-7 67 49 16 c85 29 134 35 258 33 112 -2 124 -4 179 -32z
m1490 3 c28 -14 60 -37 71 -50 55 -59 88 -178 82 -293 l-3 -60 -252 -3 c-282
-3 -267 2 -242 -73 15 -44 44 -76 94 -102 33 -17 57 -21 140 -20 61 1 120 7
150 17 27 8 53 12 56 8 4 -4 10 -33 14 -65 l6 -57 -45 -20 c-70 -30 -192 -43
-284 -30 -202 27 -305 145 -318 364 -11 166 36 300 125 359 67 44 125 57 246
54 96 -3 116 -6 160 -29z m713 -49 l3 -77 -118 -4 c-65 -2 -124 -7 -130 -11
-10 -6 -13 -78 -13 -303 l0 -295 -87 3 -88 3 0 354 0 354 40 14 c79 28 172 41
280 40 l110 -2 3 -76z m792 -314 l0 -376 -87 3 -88 3 -3 373 -2 372 90 0 90 0
0 -375z m1206 89 c72 -284 78 -304 94 -304 10 0 51 128 131 408 l52 182 100 0
c78 0 98 -3 94 -13 -3 -7 -60 -186 -127 -398 -67 -211 -135 -410 -152 -441
-70 -132 -196 -212 -362 -230 -29 -3 -30 -2 -42 62 -7 36 -9 68 -6 71 4 4 39
16 78 27 82 25 154 75 178 125 9 19 16 37 16 41 0 3 -26 6 -57 8 l-57 3 -17
60 c-46 162 -179 664 -179 674 0 8 27 11 93 9 l92 -3 71 -281z"/>
<path d="M1968 1208 l-38 -10 0 -219 0 -219 28 -12 c15 -6 61 -11 102 -11 150
-2 220 74 220 237 0 124 -33 190 -115 227 -44 20 -135 24 -197 7z"/>
<path d="M2793 927 c-46 -17 -64 -39 -70 -83 -11 -82 69 -123 209 -110 102 11
98 6 98 101 0 46 -4 86 -9 89 -20 13 -197 15 -228 3z"/>
<path d="M4348 1220 c-67 -12 -103 -51 -122 -132 l-6 -28 171 0 171 0 -7 43
c-9 52 -27 83 -63 100 -36 19 -98 26 -144 17z"/>
</g>
</svg>
