<?xml version="1.0" standalone="no"?>
<!DOCTYPE svg PUBLIC "-//W3C//DTD SVG 20010904//EN"
 "http://www.w3.org/TR/2001/REC-SVG-20010904/DTD/svg10.dtd">
<svg version="1.0" xmlns="http://www.w3.org/2000/svg"
 width="524.000000pt" height="189.000000pt" viewBox="0 0 524.000000 189.000000"
 preserveAspectRatio="xMidYMid meet">

<g transform="translate(0.000000,189.000000) scale(0.100000,-0.100000)"
fill="#000000" stroke="none">
<path d="M0 945 l0 -945 2620 0 2620 0 0 945 0 945 -2620 0 -2620 0 0 -945z
m4450 830 c189 -29 304 -71 366 -136 42 -44 46 -121 9 -191 -69 -133 -219
-273 -533 -496 -39 -29 -75 -52 -78 -52 -3 0 -14 21 -25 46 -11 25 -40 66 -64
91 l-44 46 24 31 c74 97 94 206 53 283 -55 100 -176 157 -438 205 -116 21
-152 22 -510 22 -480 0 -725 -20 -1340 -109 -115 -17 -264 -41 -306 -50 -18
-4 -34 -3 -38 3 -3 6 16 14 47 20 28 5 108 21 177 35 331 67 722 132 1030 171
58 8 121 17 140 20 79 15 566 61 790 76 199 13 614 5 740 -15z m-3614 -701
c60 -17 61 -19 42 -101 -10 -42 -16 -52 -28 -47 -57 25 -91 33 -135 33 -126 0
-235 -85 -235 -184 0 -55 29 -89 95 -109 48 -16 66 -16 137 -7 45 6 83 9 85 7
2 -2 -1 -33 -7 -69 -12 -64 -12 -65 -48 -71 -65 -10 -215 -6 -283 8 -111 24
-186 77 -215 153 -45 117 39 274 184 344 116 56 298 75 408 43z m2631 1 c7 -3
11 -10 8 -17 -5 -14 -38 -199 -61 -347 -8 -52 -19 -114 -25 -138 l-11 -43 -98
0 -97 0 9 58 c4 31 17 104 28 162 10 58 26 148 35 200 26 149 20 142 117 134
46 -3 89 -7 95 -9z m524 -1 c30 -9 70 -29 89 -44 43 -34 87 -111 96 -168 4
-23 12 -42 19 -42 7 0 41 9 75 20 35 11 65 19 67 17 2 -2 -5 -42 -16 -88 -11
-46 -18 -86 -15 -88 2 -2 39 29 82 71 42 41 91 82 109 92 40 20 87 21 103 1
15 -18 8 -95 -14 -171 -9 -27 -25 -82 -36 -122 -31 -103 -15 -131 40 -73 21
23 28 44 33 91 8 77 42 143 104 201 70 66 99 81 169 87 60 4 64 3 95 -27 28
-28 31 -37 26 -73 -11 -81 -105 -142 -239 -156 l-73 -7 1 -49 c0 -42 5 -53 32
-77 21 -19 43 -29 63 -29 40 0 100 32 132 70 29 34 37 37 37 15 0 -23 -76
-101 -117 -120 -26 -13 -53 -16 -101 -13 -57 4 -68 8 -92 35 -15 17 -30 37
-34 44 -5 12 -7 11 -13 -1 -3 -8 -21 -30 -39 -48 -29 -29 -39 -33 -76 -30 -43
3 -43 3 -46 45 -2 26 9 84 28 150 48 163 52 183 40 198 -20 24 -62 -2 -149
-89 -69 -69 -85 -91 -92 -127 -36 -176 -31 -164 -72 -167 -29 -3 -37 0 -37 13
0 19 43 212 66 298 17 66 14 77 -25 77 -27 0 -29 -3 -35 -57 -9 -77 -66 -191
-121 -242 -117 -108 -303 -139 -423 -71 -167 95 -168 383 -1 550 55 55 90 76
174 101 76 22 118 23 186 3z m-1705 -15 c8 -6 14 -21 14 -34 0 -36 -35 -58
-98 -63 -47 -3 -62 0 -84 18 -16 12 -28 27 -28 34 0 18 33 45 66 56 35 11 112
4 130 -11z m311 -51 c-2 -24 -8 -51 -12 -60 -6 -16 -1 -18 44 -18 54 0 54 0
45 -49 -6 -29 -9 -31 -54 -31 l-48 0 -10 -42 c-6 -24 -16 -74 -22 -113 -6 -38
-16 -91 -22 -117 l-12 -48 -99 0 c-89 0 -98 2 -93 18 2 9 7 37 11 62 5 38 20
117 41 218 4 20 1 22 -35 22 -28 0 -39 4 -37 13 3 6 7 24 10 40 6 24 11 27 46
27 37 0 40 2 40 28 0 46 15 56 102 74 118 23 111 25 105 -24z m-1276 -78 c98
-19 117 -65 85 -205 -24 -103 -29 -164 -16 -180 11 -13 -1 -15 -94 -15 -99 0
-106 1 -106 20 0 25 -7 25 -51 3 -24 -13 -64 -19 -134 -21 -91 -3 -103 -2
-135 20 -28 19 -36 31 -38 62 -7 80 57 122 207 138 132 13 179 26 187 50 4 13
1 24 -7 29 -20 12 -131 10 -222 -5 -87 -14 -84 -18 -52 61 12 28 18 32 67 37
151 17 242 19 309 6z m1760 0 c30 -6 63 -20 77 -33 22 -20 24 -27 18 -92 -4
-38 -13 -101 -21 -140 -18 -86 -19 -122 -2 -128 6 -3 -36 -6 -95 -6 -103 -1
-108 0 -108 20 0 16 -4 19 -17 14 -66 -28 -98 -34 -178 -34 -102 -1 -130 9
-157 56 -18 30 -18 33 -1 70 28 59 80 82 220 98 129 14 173 27 173 49 0 38
-93 46 -230 21 -41 -7 -77 -11 -79 -9 -4 4 28 83 39 97 16 19 283 32 361 17z
m-1419 -31 l-3 -26 58 29 c52 26 66 29 133 26 87 -4 127 -25 155 -84 25 -54
16 -151 -19 -204 -69 -105 -225 -149 -330 -95 -16 8 -29 15 -31 15 -1 0 -7
-33 -14 -72 -7 -40 -15 -79 -17 -85 -2 -9 -31 -13 -99 -13 l-97 0 6 28 c3 15
10 56 16 92 6 36 19 115 30 175 11 61 25 137 31 169 5 33 12 63 15 68 3 5 42
7 87 6 82 -3 82 -3 79 -29z m614 4 c-6 -27 -25 -137 -46 -268 -19 -116 -7
-105 -120 -105 -99 0 -100 0 -96 23 15 73 27 136 47 250 l22 127 99 0 100 0
-6 -27z m1220 -388 c9 -20 15 -37 13 -39 -2 -1 -69 -38 -149 -81 -80 -43 -167
-90 -195 -105 -284 -154 -397 -211 -404 -204 -3 3 1 10 9 15 239 145 415 257
575 366 66 45 123 82 127 82 4 1 15 -15 24 -34z"/>
<path d="M3824 1042 c-55 -22 -83 -47 -126 -107 -65 -92 -100 -243 -79 -338
14 -61 53 -122 94 -148 48 -30 149 -23 206 14 122 81 191 336 127 472 -27 58
-57 88 -108 110 -46 19 -62 18 -114 -3z"/>
<path d="M4873 832 c-43 -7 -153 -152 -153 -203 0 -24 111 6 160 44 61 46 82
134 38 153 -13 6 -33 8 -45 6z"/>
<path d="M1122 691 c-80 -17 -104 -38 -76 -65 33 -34 131 -8 153 40 13 29 14
45 4 43 -5 -1 -41 -9 -81 -18z"/>
<path d="M2888 691 c-37 -9 -76 -24 -85 -34 -17 -17 -17 -19 1 -33 11 -8 33
-14 49 -14 28 0 93 25 101 39 9 16 15 61 9 60 -5 -1 -38 -9 -75 -18z"/>
<path d="M1705 820 c-27 -10 -40 -27 -54 -72 -10 -31 -9 -42 4 -67 14 -28 20
-31 63 -31 51 1 68 10 95 52 50 79 -19 155 -108 118z"/>
</g>
</svg>
